<?xml version="1.0" encoding="UTF-8"?>
<svg version="1.1" xmlns="http://www.w3.org/2000/svg" width="1200" height="1200">
<path d="M0 0 C4.24363115 0.50761138 6.81069132 3.14797404 9.875 5.875 C14.54409956 9.93618907 19.28958246 13.8430212 24.1875 17.625 C29.18039691 21.49796287 33.9250517 25.54369544 38.578125 29.82421875 C41.13257166 32.11910067 43.76472107 34.28191134 46.4375 36.4375 C51.22004987 40.30524427 55.75063064 44.38860907 60.2734375 48.5546875 C62.8261621 50.8440938 65.44097854 52.99237872 68.125 55.125 C73.97082131 59.83530206 79.38357365 64.96997444 84.81103516 70.15283203 C85.49601074 70.80622559 86.18098633 71.45961914 86.88671875 72.1328125 C87.48701904 72.70918457 88.08731934 73.28555664 88.70581055 73.87939453 C90.70097672 75.72360156 92.72719921 77.51376987 94.77709961 79.29638672 C108.57246761 91.32749158 121.49361099 104.33273162 134.41503906 117.28466797 C137.15314332 120.0281991 139.8966438 122.76625432 142.640625 125.50390625 C144.40917537 127.27311647 146.17741602 129.04263637 147.9453125 130.8125 C148.75267853 131.6178418 149.56004456 132.42318359 150.39187622 133.25292969 C154.59162654 137.46997475 158.6406046 141.76047421 162.51623535 146.27812195 C164.73558726 148.85363374 167.05772737 151.32473734 169.375 153.8125 C173.63812952 158.43326236 177.71438784 163.16317635 181.6484375 168.0703125 C183.30034882 170.12834155 184.96702617 172.15998379 186.6640625 174.1796875 C201.18657462 191.64006423 213.22772219 211.04688173 224 231 C224.55397461 232.02432129 225.10794922 233.04864258 225.67871094 234.10400391 C253.21846565 285.36665386 273.76359458 340.14035831 275.7890625 398.78515625 C275.93447654 402.57231787 276.44561186 406.24999239 277 410 C277.06056151 411.64485066 277.08781955 413.29172957 277.0625 414.9375 C277.05347656 415.70964844 277.04445313 416.48179687 277.03515625 417.27734375 C277.01775391 418.13005859 277.01775391 418.13005859 277 419 C277.66 419 278.32 419 279 419 C278.94779297 417.09347656 278.94779297 417.09347656 278.89453125 415.1484375 C278.89971295 409.84030515 279.69518166 404.82826848 280.6875 399.625 C280.86756592 398.66674316 281.04763184 397.70848633 281.2331543 396.72119141 C289.13199547 355.87395892 306.24857228 317.71127305 332 285 C332.70511719 284.10152344 333.41023437 283.20304687 334.13671875 282.27734375 C340.07991944 274.86168042 346.47218391 267.89841196 353 261 C353.95712891 259.9790625 353.95712891 259.9790625 354.93359375 258.9375 C359.88182879 253.8112709 365.44740835 249.44825144 371 245 C371.79277344 244.34 372.58554687 243.68 373.40234375 243 C415.35556968 208.37637261 465.5640352 195.84078842 519.03125 195.85473633 C521.33569391 195.85173932 523.64013732 195.84833556 525.94458008 195.84455872 C532.16763578 195.83577226 538.39067771 195.83338294 544.61373901 195.83274293 C548.50852601 195.83202969 552.40330956 195.82989025 556.2980957 195.82724571 C569.20412133 195.81848719 582.11013727 195.81382379 595.01616573 195.81457619 C595.70950292 195.81461614 596.4028401 195.8146561 597.1171875 195.81469727 C597.81138322 195.81473815 598.50557894 195.81477903 599.22081089 195.81482115 C610.47516638 195.81522775 621.72948844 195.80564974 632.98383427 195.7915589 C644.57601519 195.77716094 656.16817831 195.77047325 667.76036835 195.77115268 C674.2540792 195.77140691 680.74775212 195.76859636 687.24145508 195.75797462 C693.34828018 195.74825679 699.45503134 195.74823967 705.56185913 195.75549126 C707.79422108 195.75653233 710.02658772 195.75420277 712.25894165 195.7481308 C738.68690302 195.68093849 761.93124736 198.94234483 782 218 C800.9010921 237.60796221 803.6210458 259.07531902 803.51387022 285.19841747 C803.50364228 288.78111608 803.51679487 292.3637463 803.52684355 295.94643497 C803.541237 302.21399949 803.54088507 308.481426 803.53065491 314.74899673 C803.51548354 324.06929242 803.52328136 333.38947233 803.53548814 342.70976731 C803.55652257 359.35873347 803.55473692 376.00763813 803.54317249 392.6566101 C803.53310208 407.22657518 803.53048727 421.79651775 803.53526306 436.3664856 C803.53572137 437.81733777 803.53572137 437.81733777 803.53618894 439.29750008 C803.53743434 443.22402488 803.53870794 447.15054967 803.540028 451.07707444 C803.55225833 487.89538441 803.54117914 524.71365526 803.51964041 561.53195919 C803.50065862 594.22803281 803.50235715 626.92404411 803.52148438 659.62011719 C803.54291247 696.37197418 803.55139089 733.12379662 803.53903532 769.87565899 C803.53775249 773.79494412 803.53650113 777.71422926 803.53526306 781.6335144 C803.53494675 782.59851089 803.53463044 783.56350738 803.53430455 784.55774618 C803.52975861 799.11696764 803.53506839 813.67616409 803.54518127 828.23538208 C803.55662526 844.79329171 803.55374416 861.35113035 803.5320583 877.90903115 C803.52032757 887.17084986 803.51952551 896.43251474 803.534643 905.6943294 C803.54363387 911.88662349 803.53799193 918.07879465 803.52062392 924.27107058 C803.51114022 927.79533749 803.50778883 931.31929957 803.52224785 934.84355652 C803.60855971 961.76291741 803.60855971 961.76291741 799 974 C798.68595231 974.83541289 798.37190461 975.67082579 798.04834032 976.53155422 C797.27065689 978.48138338 796.40212658 980.32386077 795.4375 982.1875 C795.10161865 982.84621094 794.7657373 983.50492188 794.41967773 984.18359375 C790.67081214 991.15602771 785.65924953 996.53702502 780 1002 C779.29359375 1002.73734375 778.5871875 1003.4746875 777.859375 1004.234375 C773.51171139 1008.51566206 768.75659325 1011.46679742 763.375 1014.25 C762.77276611 1014.56743164 762.17053223 1014.88486328 761.55004883 1015.21191406 C747.36784797 1022.13823221 733.36604795 1022.57916194 717.91601562 1022.51416016 C715.72454335 1022.51963121 713.53307491 1022.52687857 711.34161377 1022.53575134 C706.64859999 1022.55101052 701.95580458 1022.55392251 697.26277161 1022.54698563 C689.82007441 1022.53612527 682.37760182 1022.55367078 674.93493652 1022.57479858 C664.48135765 1022.60156818 654.02783071 1022.61597646 643.57421875 1022.61914062 C642.58217384 1022.61944661 642.58217384 1022.61944661 641.57008761 1022.61975877 C640.90798323 1022.61996214 640.24587884 1022.62016551 639.56371069 1022.62037504 C618.49425068 1022.62693066 597.42483358 1022.65636011 576.35542822 1022.7054714 C568.97986558 1022.72182493 561.60440073 1022.72741431 554.22882175 1022.72388101 C549.61046635 1022.72343907 544.99214682 1022.73108042 540.37380219 1022.74055672 C538.25810136 1022.74320385 536.14239294 1022.7425499 534.02669525 1022.73804665 C515.39674385 1022.70118632 496.58372506 1023.30964842 478.3125 1027.25 C477.27834961 1027.46688477 476.24419922 1027.68376953 475.17871094 1027.90722656 C446.28625038 1034.15496565 418.06568217 1045.64395326 394 1063 C393.04222656 1063.68449219 392.08445312 1064.36898438 391.09765625 1065.07421875 C374.31123136 1077.36073473 358.62324008 1091.40470249 346 1108 C345.51031738 1108.6403418 345.02063477 1109.28068359 344.51611328 1109.94042969 C333.93319032 1123.87294913 325.82241821 1138.35516359 318 1154 C291.6 1154 265.2 1154 238 1154 C234.04 1146.41 230.08 1138.82 226 1131 C223.39813134 1126.84477692 220.87862345 1122.92646593 218 1119 C217.31808594 1118.04738281 216.63617187 1117.09476563 215.93359375 1116.11328125 C203.6593583 1099.31580339 189.59553959 1083.62342423 173 1071 C172.0394873 1070.26547607 172.0394873 1070.26547607 171.05957031 1069.51611328 C160.222474 1061.28442511 149.10979404 1054.20200589 137 1048 C136.2570166 1047.61360352 135.5140332 1047.22720703 134.74853516 1046.82910156 C98.68083903 1028.23814823 59.98670502 1022.84665051 19.90258789 1022.8581543 C17.69828726 1022.85511691 15.49398726 1022.85159387 13.28968811 1022.84762573 C8.56778457 1022.83978233 3.84588843 1022.83460923 -0.87602043 1022.83133507 C-8.35418339 1022.82538615 -15.83229974 1022.80881076 -23.31044006 1022.78999329 C-25.87847421 1022.7836573 -28.44650838 1022.77733166 -31.01454258 1022.77101612 C-32.29990788 1022.76785031 -33.58527317 1022.7646845 -34.90958893 1022.76142275 C-41.53632176 1022.74543234 -48.163057 1022.73073703 -54.78979492 1022.71704102 C-55.45382218 1022.71566514 -56.11784944 1022.71428927 -56.80199874 1022.71287171 C-67.56420609 1022.69093761 -78.32640164 1022.68018155 -89.08862739 1022.67267027 C-100.17800792 1022.66457478 -111.26728546 1022.64094981 -122.3566094 1022.6047166 C-128.56701494 1022.58501949 -134.7772455 1022.57253063 -140.98768425 1022.57755089 C-146.82951104 1022.58221664 -152.67100594 1022.56828677 -158.51276588 1022.54053879 C-160.64632961 1022.53366157 -162.7799279 1022.53346269 -164.9134903 1022.54073906 C-179.92571083 1022.58673629 -193.59308036 1021.47402207 -207.1875 1014.4375 C-207.84621094 1014.10161865 -208.50492188 1013.7657373 -209.18359375 1013.41967773 C-216.15602771 1009.67081214 -221.53702502 1004.65924953 -227 999 C-227.73734375 998.29359375 -228.4746875 997.5871875 -229.234375 996.859375 C-242.19722321 983.69555239 -247.15832321 965.29005299 -247.13422108 947.37145329 C-247.13657331 946.18716259 -247.13892554 945.00287189 -247.14134905 943.78269359 C-247.14686713 940.48910435 -247.14791143 937.19556842 -247.14707164 933.90197827 C-247.14724133 930.32103388 -247.15314958 926.7400982 -247.1583125 923.15915817 C-247.16763585 916.05384984 -247.1715601 908.94854773 -247.17383147 901.84323405 C-247.17679423 893.33347178 -247.18549208 884.82371779 -247.19424575 876.31395986 C-247.21508821 855.74487017 -247.22555966 835.17577905 -247.23437535 814.60668126 C-247.23858218 804.87561385 -247.24380412 795.14454706 -247.24905988 785.41348018 C-247.26694997 752.10178637 -247.28194588 718.7900924 -247.28938007 685.47839451 C-247.28985483 683.38713823 -247.29033072 681.29588194 -247.29080774 679.20462566 C-247.29104411 678.167553 -247.29128049 677.13048033 -247.29152403 676.06198122 C-247.29272522 670.80767823 -247.29394067 665.55337525 -247.29516602 660.29907227 C-247.29540617 659.25634108 -247.29564632 658.2136099 -247.29589374 657.13928081 C-247.30378632 623.33294239 -247.32721737 589.52663906 -247.35972196 555.72031597 C-247.3940262 519.97700072 -247.41373176 484.23370601 -247.41702431 448.49037403 C-247.41744185 444.56589344 -247.41792141 440.64141287 -247.41844749 436.7169323 C-247.41857069 435.75061731 -247.41869388 434.78430232 -247.4188208 433.78870506 C-247.42115208 418.24330917 -247.43680801 402.69795405 -247.45728934 387.15257269 C-247.47755358 371.52389826 -247.4830218 355.89527276 -247.47351871 340.26658762 C-247.4683061 330.98480939 -247.4741699 321.70319419 -247.49605338 312.42143945 C-247.5095776 306.21553832 -247.50847016 300.00974921 -247.49565142 293.80384692 C-247.48876556 290.27163567 -247.48804764 286.73973573 -247.50521151 283.2075525 C-247.60597032 257.79961063 -244.29266527 237.00885445 -226 218 C-208.72503504 201.37589714 -188.08366868 195.80406373 -164.60522461 195.88647461 C-162.95002304 195.88625557 -162.95002304 195.88625557 -161.26138306 195.8860321 C-157.64168276 195.88672454 -154.02203497 195.89448543 -150.40234375 195.90234375 C-147.88171924 195.90421031 -145.36109436 195.90563309 -142.84046936 195.90663147 C-136.90150298 195.91004959 -130.96255324 195.91791791 -125.02359539 195.92798096 C-118.25689167 195.93919534 -111.49018701 195.94466591 -104.72347629 195.94967639 C-90.81564059 195.96010211 -76.90782132 195.97766822 -63 196 C-62.74184006 194.81867996 -62.48368011 193.63735992 -62.21769714 192.42024231 C-60.40841014 184.18178127 -58.58873862 175.96229983 -56.36328125 167.82421875 C-56.12701019 166.95129684 -55.89073914 166.07837494 -55.64730835 165.17900085 C-54.87627708 162.34645465 -54.0960611 159.51660464 -53.3125 156.6875 C-53.03677155 155.69010803 -52.76104309 154.69271606 -52.47695923 153.6651001 C-22.05830304 44.11660609 -22.05830304 44.11660609 0 0 Z " fill="#EFEFED" transform="translate(322,0)"/>
<path d="M0 0 C2.30444391 -0.002997 4.60888732 -0.00640077 6.91333008 -0.01017761 C13.13638578 -0.01896407 19.35942771 -0.02135338 25.58248901 -0.0219934 C29.47727601 -0.02270664 33.37205956 -0.02484607 37.2668457 -0.02749062 C50.17287133 -0.03624914 63.07888727 -0.04091254 75.98491573 -0.04016014 C76.67825292 -0.04012019 77.3715901 -0.04008023 78.0859375 -0.04003906 C78.78013322 -0.03999818 79.47432894 -0.0399573 80.18956089 -0.03991518 C91.44391638 -0.03950858 102.69823844 -0.04908659 113.95258427 -0.06317743 C125.54476519 -0.07757539 137.13692831 -0.08426308 148.72911835 -0.08358365 C155.2228292 -0.08332942 161.71650212 -0.08613997 168.21020508 -0.0967617 C174.31703018 -0.10647954 180.42378134 -0.10649666 186.53060913 -0.09924507 C188.76297108 -0.098204 190.99533772 -0.10053356 193.22769165 -0.10660553 C219.65565302 -0.17379784 242.89999736 3.0876085 262.96875 22.14526367 C281.02081228 40.87244373 284.58514947 61.64832223 284.46322632 86.65959167 C284.46640686 89.03162348 284.47133838 91.40365348 284.47785914 93.77567846 C284.48929778 99.58502286 284.48227976 105.39413578 284.46727626 111.2034672 C284.45034376 118.16914088 284.45683256 125.1347448 284.463989 132.10042839 C284.4765101 144.95594327 284.47022938 157.81138458 284.45280075 170.6668911 C284.43554781 183.39581167 284.425761 196.12469918 284.42613602 208.85363197 C284.42615895 210.04311766 284.42615895 210.04311766 284.42618235 211.25663337 C284.42626418 214.47587651 284.42639541 217.69511965 284.42659398 220.91436279 C284.42840456 251.0894113 284.40853992 281.26440951 284.37773465 311.43944057 C284.3504807 338.23453671 284.3380125 365.02959715 284.33935547 391.82470703 C284.33943629 393.545727 284.33951701 395.26674697 284.33959763 396.98776694 C284.33965868 398.26404206 284.33965868 398.26404206 284.33972096 399.56610052 C284.33992256 403.84938362 284.34010373 408.13266672 284.34026146 412.41594982 C284.34029489 413.26102162 284.34032831 414.10609343 284.34036275 414.97677347 C284.34109342 437.38496521 284.33201247 459.79315249 284.31960833 482.2013405 C284.31916779 482.99863306 284.31872724 483.79592563 284.31827335 484.61737858 C284.31649696 487.82327752 284.31472014 491.02917646 284.31289144 494.23507538 C284.30657808 505.37751086 284.30355377 516.51994283 284.30266846 527.66237998 C284.30147323 542.02073574 284.29346356 556.37906207 284.27380554 570.73740526 C284.26449164 577.65934066 284.25822166 584.58124314 284.26099396 591.50318527 C284.2631879 597.84094534 284.25612361 604.1786255 284.24169691 610.5163689 C284.23807793 612.80750231 284.23780217 615.09864398 284.24123149 617.38977768 C284.26032566 631.73658505 284.25850209 645.19530186 278.46875 658.58276367 C278.11981689 659.39479248 277.77088379 660.20682129 277.41137695 661.04345703 C269.21947405 679.25508905 254.05668826 693.11749568 235.53125 700.45776367 C221.63127164 704.93579005 207.48166041 704.4397305 193.04467773 704.43237305 C190.63188956 704.43840544 188.21910347 704.44533175 185.80632019 704.45307922 C179.9573055 704.46984076 174.10832572 704.47783626 168.25928997 704.48234427 C161.4260073 704.48831783 154.59277783 704.50719382 147.75952411 704.52722973 C135.54957411 704.56286781 123.33962001 704.59121146 111.12963867 704.61352539 C110.40056394 704.61486038 109.6714892 704.61619537 108.92032129 704.61757082 C103.74896453 704.62699254 98.57760732 704.63615417 93.40625 704.64526367 C87.51098598 704.65565486 81.61572222 704.66617577 75.72045898 704.67700195 C74.99440755 704.6783327 74.26835612 704.67966344 73.52030312 704.68103451 C61.36084091 704.70356064 49.20140922 704.73380069 37.04197842 704.7693944 C30.23284622 704.78899079 23.42375124 704.80447182 16.6145916 704.80973816 C10.20324005 704.81481428 3.79196801 704.82877569 -2.61935234 704.84923363 C-4.9572274 704.8550558 -7.29511361 704.8575932 -9.63299561 704.85639381 C-27.22128108 704.8499492 -44.86693871 705.2947204 -62.09375 709.20776367 C-63.49947266 709.52366455 -63.49947266 709.52366455 -64.93359375 709.84594727 C-103.6906766 718.98209032 -137.23034801 737.04073468 -167.03125 763.14526367 C-167.57426758 763.61834961 -168.11728516 764.09143555 -168.67675781 764.57885742 C-207.67065 798.7767094 -233.40401996 849.6530834 -239.03125 901.14526367 C-239.69125 901.14526367 -240.35125 901.14526367 -241.03125 901.14526367 C-241.36125 677.40526367 -241.69125 453.66526367 -242.03125 223.14526367 C-241.37125 223.14526367 -240.71125 223.14526367 -240.03125 223.14526367 C-240.06605469 221.87424805 -240.10085938 220.60323242 -240.13671875 219.29370117 C-240.13153705 213.98556882 -239.33606834 208.97353215 -238.34375 203.77026367 C-238.16368408 202.81200684 -237.98361816 201.85375 -237.7980957 200.86645508 C-229.89925453 160.01922259 -212.78267772 121.85653672 -187.03125 89.14526367 C-186.32613281 88.24678711 -185.62101563 87.34831055 -184.89453125 86.42260742 C-178.95133056 79.00694409 -172.55906609 72.04367563 -166.03125 65.14526367 C-165.39316406 64.46463867 -164.75507812 63.78401367 -164.09765625 63.08276367 C-159.14942121 57.95653457 -153.58384165 53.59351511 -148.03125 49.14526367 C-147.23847656 48.48526367 -146.44570313 47.82526367 -145.62890625 47.14526367 C-103.67568032 12.52163628 -53.4672148 -0.0139479 0 0 Z " fill="#F4F4F2" transform="translate(841.03125,195.854736328125)"/>
<path d="M0 0 C4.24363115 0.50761138 6.81069132 3.14797404 9.875 5.875 C14.54409956 9.93618907 19.28958246 13.8430212 24.1875 17.625 C29.18039691 21.49796287 33.9250517 25.54369544 38.578125 29.82421875 C41.13257166 32.11910067 43.76472107 34.28191134 46.4375 36.4375 C51.22004987 40.30524427 55.75063064 44.38860907 60.2734375 48.5546875 C62.8261621 50.8440938 65.44097854 52.99237872 68.125 55.125 C73.97082131 59.83530206 79.38357365 64.96997444 84.81103516 70.15283203 C85.49601074 70.80622559 86.18098633 71.45961914 86.88671875 72.1328125 C87.48701904 72.70918457 88.08731934 73.28555664 88.70581055 73.87939453 C90.70097672 75.72360156 92.72719921 77.51376987 94.77709961 79.29638672 C108.57246761 91.32749158 121.49361099 104.33273162 134.41503906 117.28466797 C137.15314332 120.0281991 139.8966438 122.76625432 142.640625 125.50390625 C144.40917537 127.27311647 146.17741602 129.04263637 147.9453125 130.8125 C148.75267853 131.6178418 149.56004456 132.42318359 150.39187622 133.25292969 C154.59162654 137.46997475 158.6406046 141.76047421 162.51623535 146.27812195 C164.73558726 148.85363374 167.05772737 151.32473734 169.375 153.8125 C173.63812952 158.43326236 177.71438784 163.16317635 181.6484375 168.0703125 C183.30034882 170.12834155 184.96702617 172.15998379 186.6640625 174.1796875 C201.18657462 191.64006423 213.22772219 211.04688173 224 231 C224.55397461 232.02432129 225.10794922 233.04864258 225.67871094 234.10400391 C254.32474138 287.42588155 276.78414437 345.65888653 275 407 C274.98453125 407.78455566 274.9690625 408.56911133 274.953125 409.37744141 C274.63444947 424.36514992 272.68766544 440.43539557 266 454 C265.44570313 455.17175781 264.89140625 456.34351563 264.3203125 457.55078125 C248.07224819 491.36874362 224.30530474 520.98847253 199.1640625 548.6171875 C197.73073335 550.1954019 196.3086322 551.78389285 194.8984375 553.3828125 C194.18945312 554.18460938 193.48046875 554.98640625 192.75 555.8125 C192.02554687 556.63234375 191.30109375 557.4521875 190.5546875 558.296875 C188.5907645 560.37490974 186.62179106 562.28836359 184.5078125 564.203125 C183.90743164 564.7602417 183.30705078 565.3173584 182.68847656 565.89135742 C181.50513167 566.98182535 180.30179219 568.05109661 179.07714844 569.0949707 C176.65883527 571.34663959 175.10542114 572.83014877 174.80102539 576.20800781 C175.21459975 580.48919394 176.29894022 584.55892198 177.6875 588.625 C179.67642921 594.77915054 181.33319851 600.9850979 182.9375 607.25 C184.68135098 614.03655498 186.47566907 620.79153764 188.5 627.5 C190.76729059 635.02361378 192.74401349 642.61031644 194.70141602 650.21972656 C196.34944058 656.59369621 198.09860856 662.92865803 199.9375 669.25 C203.27417259 680.73781367 206.2397093 692.31874553 209.18896484 703.91113281 C210.23162203 707.88214385 211.38163099 711.82002212 212.55786133 715.75341797 C213 718 213 718 212 721 C209.4314876 721.80227881 207.00180676 722.40798222 204.375 722.9375 C202.8263454 723.27253993 201.27817561 723.60982771 199.73046875 723.94921875 C198.94333496 724.1198584 198.15620117 724.29049805 197.34521484 724.46630859 C192.5429296 725.55914594 187.81440089 726.93324948 183.07421875 728.265625 C180 729 180 729 176 729 C175.68361572 727.71089722 175.68361572 727.71089722 175.36083984 726.39575195 C170.48411748 706.36725642 170.48411748 706.36725642 165 686.5 C161.98918347 676.2863679 159.43384445 665.96452736 156.890625 655.62695312 C154.69808302 646.72192042 152.38015787 637.85662356 150 629 C146.03715873 614.06198767 142.18328839 599.12556286 139 584 C137.96359375 583.91621094 136.9271875 583.83242188 135.859375 583.74609375 C129.46938797 582.93824482 123.39406557 580.93426738 117.25 579.0625 C116.59549866 578.86403473 115.94099731 578.66556946 115.2666626 578.46109009 C91.20713187 571.14625708 67.95870031 562.24636916 45 552 C43.7301123 551.43949951 43.7301123 551.43949951 42.43457031 550.86767578 C25.26919776 543.26087407 9.29162395 533.98147084 -5.40527344 522.27050781 C-6.71853553 521.22424083 -8.04852035 520.19899921 -9.3828125 519.1796875 C-47.49303996 488.47549615 -62.87271218 427.76029179 -70 382 C-70.1642749 380.97366455 -70.3285498 379.9473291 -70.49780273 378.88989258 C-71.70365761 371.25663073 -72.7031467 363.61711759 -73.5625 355.9375 C-73.68818359 354.87595703 -73.81386719 353.81441406 -73.94335938 352.72070312 C-75.86720261 335.60756361 -76.23500496 318.39479715 -76.25 301.1875 C-76.25133942 300.26300049 -76.25267883 299.33850098 -76.25405884 298.38598633 C-76.24878068 281.41869528 -75.20509842 264.8322513 -73 248 C-72.88785156 247.10603516 -72.77570313 246.21207031 -72.66015625 245.29101562 C-71.21770001 234.06300745 -68.78742746 223.06322005 -66.24487305 212.03808594 C-64.89309347 206.16309503 -63.67717002 200.29522647 -62.62109375 194.359375 C-60.93808485 185.08541805 -58.53371648 176.02797293 -56.0625 166.9375 C-55.7060994 165.6176561 -55.7060994 165.6176561 -55.34249878 164.27114868 C-46.74214656 132.48377127 -36.66809707 101.14796673 -26 70 C-25.73789734 69.23431702 -25.47579468 68.46863403 -25.20574951 67.67974854 C-6.3826001 12.7652002 -6.3826001 12.7652002 0 0 Z " fill="#0FD3CD" transform="translate(322,0)"/>
<path d="M0 0 C0.33 0 0.66 0 1 0 C1.09796875 0.72703125 1.1959375 1.4540625 1.296875 2.203125 C4.23766033 21.97737118 12.75944351 38.59559224 27.984375 51.765625 C31.57833502 54.42850729 35.26656724 56.66827461 39.1875 58.8125 C39.83323975 59.17351807 40.47897949 59.53453613 41.14428711 59.90649414 C56.07742841 67.65861225 71.21438539 67.57537502 87.62597656 67.51416016 C90.08994483 67.51962923 92.55390969 67.52687545 95.01786804 67.53575134 C100.29857167 67.55102407 105.57907411 67.55442817 110.85977936 67.54698563 C118.51516742 67.53639523 126.17037284 67.54995314 133.82573661 67.56945018 C146.2775425 67.60070197 158.72930946 67.61578648 171.18115234 67.61914062 C172.29589102 67.61944661 172.29589102 67.61944661 173.43314967 67.61975877 C174.54919506 67.62006382 174.54919506 67.62006382 175.68778682 67.62037504 C186.22431824 67.62329215 196.76083757 67.63009334 207.29736328 67.64160156 C208.03838965 67.64240686 208.77941602 67.64321215 209.54289773 67.64404185 C221.94762404 67.65785 234.35232917 67.67967712 246.75703597 67.7054714 C254.38238757 67.72081542 262.0076693 67.72815068 269.63303605 67.72467647 C275.49063599 67.72237403 281.34819818 67.72981623 287.20578957 67.74055672 C289.59085522 67.74321718 291.9759276 67.74252629 294.36099052 67.73804665 C311.72791582 67.70770947 328.97834113 68.10057955 345.9375 72.25 C346.84878662 72.46688477 347.76007324 72.68376953 348.69897461 72.90722656 C406.27622283 86.90214592 458.44795381 120.7167261 490.1875 171.5 C491.46740328 173.66132121 492.73802177 175.82816374 494 178 C494.7115729 179.17358157 495.42383604 180.34674485 496.13671875 181.51953125 C511.63631623 207.48161246 519.56363072 236.29874025 524 266 C524.99 265.67 525.98 265.34 527 265 C526.94714844 263.94296875 526.89429688 262.8859375 526.83984375 261.796875 C526.84907157 255.79088436 528.23897876 250.08229225 529.5625 244.25 C529.83280029 243.0549585 530.10310059 241.85991699 530.3815918 240.62866211 C543.71904823 183.57122968 580.52099465 133.39726075 629.97998047 102.24267578 C653.82660619 87.57270661 678.73218455 78.01203657 706 72 C706.63147265 71.84943997 707.26294529 71.69887995 707.91355348 71.5437575 C724.93079036 67.57076691 742.40350931 67.70758986 759.78222656 67.72875977 C762.20253676 67.72436136 764.62284544 67.7190552 767.04315186 67.71292114 C772.88251612 67.70003359 778.7218414 67.69572452 784.56121853 67.69468112 C791.38465851 67.69264107 798.20804688 67.67678637 805.03146288 67.65954458 C817.21660422 67.6288469 829.40174741 67.60461373 841.58691406 67.58666992 C842.31307953 67.58559724 843.03924499 67.58452456 843.78741547 67.58341938 C851.8928619 67.57159341 859.99830908 67.56138443 868.10375977 67.55297852 C871.0473633 67.54990388 873.99096682 67.54681519 876.93457031 67.54370117 C877.6610443 67.54293583 878.38751828 67.54217049 879.13600662 67.54138196 C891.28664143 67.52826178 903.43722276 67.50357717 915.58781791 67.46995777 C922.38891066 67.45158454 929.18991558 67.43907519 935.99103546 67.44125557 C942.38362168 67.44301437 948.77603953 67.43114702 955.16858673 67.40913773 C957.50330964 67.40357188 959.8380512 67.40302164 962.17277527 67.40807533 C985.83648948 67.53130959 985.83648948 67.53130959 1008 60 C1008.845625 59.60296875 1009.69125 59.2059375 1010.5625 58.796875 C1028.62269139 49.86939403 1039.81030934 33.64610522 1046.36328125 15.02734375 C1047.80329969 10.44225436 1048.54925063 5.7742637 1049 1 C1049.33 1 1049.66 1 1050 1 C1050.09380767 17.16925992 1050.1641564 33.33843037 1050.20724869 49.50789738 C1050.22779686 57.01715808 1050.25576743 64.52624884 1050.30175781 72.03540039 C1050.34186482 78.58710828 1050.36748896 85.13869297 1050.37635398 91.69052023 C1050.3815288 95.15362311 1050.39352532 98.61637385 1050.42292023 102.07936287 C1050.64929865 129.82273869 1050.64929865 129.82273869 1046 142 C1045.68580109 142.83444641 1045.37160217 143.66889282 1045.04788208 144.52862549 C1044.27111101 146.48011755 1043.40267065 148.32280965 1042.4375 150.1875 C1042.10161865 150.84621094 1041.7657373 151.50492188 1041.41967773 152.18359375 C1037.67081214 159.15602771 1032.65924953 164.53702502 1027 170 C1026.29359375 170.73734375 1025.5871875 171.4746875 1024.859375 172.234375 C1020.51171139 176.51566206 1015.75659325 179.46679742 1010.375 182.25 C1009.77276611 182.56743164 1009.17053223 182.88486328 1008.55004883 183.21191406 C994.36784797 190.13823221 980.36604795 190.57916194 964.91601562 190.51416016 C962.72454335 190.51963121 960.53307491 190.52687857 958.34161377 190.53575134 C953.64859999 190.55101052 948.95580458 190.55392251 944.26277161 190.54698563 C936.82007441 190.53612527 929.37760182 190.55367078 921.93493652 190.57479858 C911.48135765 190.60156818 901.02783071 190.61597646 890.57421875 190.61914062 C889.58217384 190.61944661 889.58217384 190.61944661 888.57008761 190.61975877 C887.90798323 190.61996214 887.24587884 190.62016551 886.56371069 190.62037504 C865.49425068 190.62693066 844.42483358 190.65636011 823.35542822 190.7054714 C815.97986558 190.72182493 808.60440073 190.72741431 801.22882175 190.72388101 C796.61046635 190.72343907 791.99214682 190.73108042 787.37380219 190.74055672 C785.25810136 190.74320385 783.14239294 190.7425499 781.02669525 190.73804665 C762.39674385 190.70118632 743.58372506 191.30964842 725.3125 195.25 C724.27834961 195.46688477 723.24419922 195.68376953 722.17871094 195.90722656 C693.28625038 202.15496565 665.06568217 213.64395326 641 231 C640.04222656 231.68449219 639.08445312 232.36898438 638.09765625 233.07421875 C621.31123136 245.36073473 605.62324008 259.40470249 593 276 C592.51031738 276.6403418 592.02063477 277.28068359 591.51611328 277.94042969 C580.93319032 291.87294913 572.82241821 306.35516359 565 322 C538.6 322 512.2 322 485 322 C481.04 314.41 477.08 306.82 473 299 C470.39813134 294.84477692 467.87862345 290.92646593 465 287 C464.31808594 286.04738281 463.63617187 285.09476563 462.93359375 284.11328125 C450.6593583 267.31580339 436.59553959 251.62342423 420 239 C419.3596582 238.51031738 418.71931641 238.02063477 418.05957031 237.51611328 C407.222474 229.28442511 396.10979404 222.20200589 384 216 C383.2570166 215.61360352 382.5140332 215.22720703 381.74853516 214.82910156 C345.68083903 196.23814823 306.98670502 190.84665051 266.90258789 190.8581543 C264.69828726 190.85511691 262.49398726 190.85159387 260.28968811 190.84762573 C255.56778457 190.83978233 250.84588843 190.83460923 246.12397957 190.83133507 C238.64581661 190.82538615 231.16770026 190.80881076 223.68955994 190.78999329 C221.12152579 190.7836573 218.55349162 190.77733166 215.98545742 190.77101612 C214.70009212 190.76785031 213.41472683 190.7646845 212.09041107 190.76142275 C205.46367824 190.74543234 198.836943 190.73073703 192.21020508 190.71704102 C191.54617782 190.71566514 190.88215056 190.71428927 190.19800126 190.71287171 C179.43579391 190.69093761 168.67359836 190.68018155 157.91137261 190.67267027 C146.82199208 190.66457478 135.73271454 190.64094981 124.6433906 190.6047166 C118.43298506 190.58501949 112.2227545 190.57253063 106.01231575 190.57755089 C100.17048896 190.58221664 94.32899406 190.56828677 88.48723412 190.54053879 C86.35367039 190.53366157 84.2200721 190.53346269 82.0865097 190.54073906 C67.07428917 190.58673629 53.40691964 189.47402207 39.8125 182.4375 C39.15378906 182.10161865 38.49507812 181.7657373 37.81640625 181.41967773 C30.84397229 177.67081214 25.46297498 172.65924953 20 167 C19.26265625 166.29359375 18.5253125 165.5871875 17.765625 164.859375 C7.05904247 153.98679894 -0.13533011 136.6834136 -0.12025452 121.45706177 C-0.12231651 119.84179344 -0.12231651 119.84179344 -0.12442017 118.19389343 C-0.12082489 117.0279213 -0.11722961 115.86194916 -0.11352539 114.66064453 C-0.11367142 113.42106491 -0.11381744 112.18148529 -0.1139679 110.90434265 C-0.11339199 107.51841818 -0.10838825 104.13255523 -0.10139394 100.74664164 C-0.09512847 97.2032378 -0.09455408 93.65983308 -0.09336853 90.11642456 C-0.09026462 83.41237391 -0.08206392 76.70833963 -0.07201904 70.00429618 C-0.06082868 62.36947991 -0.05534009 54.73466284 -0.05032361 47.0998404 C-0.03988051 31.39988413 -0.02229931 15.69994418 0 0 Z " fill="#C0BEBB" transform="translate(75,832)"/>
<path d="M0 0 C0.33 0 0.66 0 1 0 C1.1007027 4.28257592 1.17230689 8.56448105 1.21972656 12.84790039 C1.23954342 14.2975671 1.26660535 15.74715728 1.30175781 17.1965332 C1.61959075 30.66236684 -0.27731713 43.04465262 -6.5625 55.1875 C-6.89838135 55.84621094 -7.2342627 56.50492188 -7.58032227 57.18359375 C-11.32918786 64.15602771 -16.34075047 69.53702502 -22 75 C-22.70640625 75.73734375 -23.4128125 76.4746875 -24.140625 77.234375 C-28.48828861 81.51566206 -33.24340675 84.46679742 -38.625 87.25 C-39.22723389 87.56743164 -39.82946777 87.88486328 -40.44995117 88.21191406 C-54.63215203 95.13823221 -68.63395205 95.57916194 -84.08398438 95.51416016 C-86.27545665 95.51963121 -88.46692509 95.52687857 -90.65838623 95.53575134 C-95.35140001 95.55101052 -100.04419542 95.55392251 -104.73722839 95.54698563 C-112.17992559 95.53612527 -119.62239818 95.55367078 -127.06506348 95.57479858 C-137.51864235 95.60156818 -147.97216929 95.61597646 -158.42578125 95.61914062 C-159.41782616 95.61944661 -159.41782616 95.61944661 -160.42991239 95.61975877 C-161.09201677 95.61996214 -161.75412116 95.62016551 -162.43628931 95.62037504 C-183.50574932 95.62693066 -204.57516642 95.65636011 -225.64457178 95.7054714 C-233.02013442 95.72182493 -240.39559927 95.72741431 -247.77117825 95.72388101 C-252.38953365 95.72343907 -257.00785318 95.73108042 -261.62619781 95.74055672 C-263.74189864 95.74320385 -265.85760706 95.7425499 -267.97330475 95.73804665 C-286.60325615 95.70118632 -305.41627494 96.30964842 -323.6875 100.25 C-324.72165039 100.46688477 -325.75580078 100.68376953 -326.82128906 100.90722656 C-355.71374962 107.15496565 -383.93431783 118.64395326 -408 136 C-408.95777344 136.68449219 -409.91554688 137.36898438 -410.90234375 138.07421875 C-427.68876864 150.36073473 -443.37675992 164.40470249 -456 181 C-456.48968262 181.6403418 -456.97936523 182.28068359 -457.48388672 182.94042969 C-468.06680968 196.87294913 -476.17758179 211.35516359 -484 227 C-510.4 227 -536.8 227 -564 227 C-567.96 219.41 -571.92 211.82 -576 204 C-578.60186866 199.84477692 -581.12137655 195.92646593 -584 192 C-584.68191406 191.04738281 -585.36382813 190.09476563 -586.06640625 189.11328125 C-598.3406417 172.31580339 -612.40446041 156.62342423 -629 144 C-629.6403418 143.51031738 -630.28068359 143.02063477 -630.94042969 142.51611328 C-641.777526 134.28442511 -652.89020596 127.20200589 -665 121 C-665.7429834 120.61360352 -666.4859668 120.22720703 -667.25146484 119.82910156 C-703.31916097 101.23814823 -742.01329498 95.84665051 -782.09741211 95.8581543 C-784.30171274 95.85511691 -786.50601274 95.85159387 -788.71031189 95.84762573 C-793.43221543 95.83978233 -798.15411157 95.83460923 -802.87602043 95.83133507 C-810.35418339 95.82538615 -817.83229974 95.80881076 -825.31044006 95.78999329 C-827.87847421 95.7836573 -830.44650838 95.77733166 -833.01454258 95.77101612 C-834.29990788 95.76785031 -835.58527317 95.7646845 -836.90958893 95.76142275 C-843.53632176 95.74543234 -850.163057 95.73073703 -856.78979492 95.71704102 C-857.45382218 95.71566514 -858.11784944 95.71428927 -858.80199874 95.71287171 C-869.56420609 95.69093761 -880.32640164 95.68018155 -891.08862739 95.67267027 C-902.17800792 95.66457478 -913.26728546 95.64094981 -924.3566094 95.6047166 C-930.56701494 95.58501949 -936.7772455 95.57253063 -942.98768425 95.57755089 C-948.82951104 95.58221664 -954.67100594 95.56828677 -960.51276588 95.54053879 C-962.64632961 95.53366157 -964.7799279 95.53346269 -966.9134903 95.54073906 C-981.92571083 95.58673629 -995.59308036 94.47402207 -1009.1875 87.4375 C-1009.84621094 87.10161865 -1010.50492188 86.7657373 -1011.18359375 86.41967773 C-1018.15602771 82.67081214 -1023.53702502 77.65924953 -1029 72 C-1029.73734375 71.29359375 -1030.4746875 70.5871875 -1031.234375 69.859375 C-1042.54823171 58.37010966 -1049.16582563 40.80319747 -1049.09765625 24.8515625 C-1049.09553383 23.86547501 -1049.09553383 23.86547501 -1049.09336853 22.85946655 C-1049.08781762 20.78126269 -1049.07527465 18.70317073 -1049.0625 16.625 C-1049.05747864 15.20703282 -1049.05291685 13.78906393 -1049.04882812 12.37109375 C-1049.03786437 8.91402678 -1049.02063421 5.45702433 -1049 2 C-1048.67 2 -1048.34 2 -1048 2 C-1047.84144531 2.71542969 -1047.68289063 3.43085937 -1047.51953125 4.16796875 C-1044.35085974 17.70047193 -1039.89793664 31.2119477 -1029.75390625 41.21484375 C-1028 43 -1028 43 -1028 45 C-1027.40445312 45.27328125 -1026.80890625 45.5465625 -1026.1953125 45.828125 C-1024.07352802 46.96075016 -1022.62253164 48.11662872 -1020.875 49.75 C-1003.23557842 65.07727753 -982.11433228 66.30006339 -959.92700195 66.27124023 C-957.68848482 66.27563253 -955.44996932 66.28093652 -953.2114563 66.28707886 C-948.40438655 66.29854583 -943.59736068 66.3040359 -938.79027748 66.30496025 C-931.16704477 66.30691025 -923.54390184 66.32501731 -915.92070007 66.34571838 C-905.21203035 66.37345918 -894.50336937 66.39644806 -883.79467773 66.41333008 C-882.77720367 66.4149391 -882.77720367 66.4149391 -881.73917457 66.41658062 C-874.18931802 66.42837442 -866.63946065 66.43858326 -859.08959961 66.44702148 C-856.35978188 66.4500951 -853.62996417 66.45318399 -850.90014648 66.45629883 C-849.88984197 66.45744684 -849.88984197 66.45744684 -848.85912726 66.45861804 C-837.55850429 66.47177899 -826.25794699 66.49668216 -814.95736283 66.53004223 C-807.40310246 66.55164144 -799.84898932 66.55989299 -792.29470026 66.55764949 C-787.56045459 66.55933493 -782.82630225 66.57349735 -778.09209061 66.59086227 C-775.92360435 66.59638782 -773.75509811 66.59701689 -771.58661079 66.59192467 C-756.51528828 66.56028945 -741.90788417 67.78724557 -727 70 C-726.27938121 70.10594793 -725.55876243 70.21189586 -724.81630671 70.32105434 C-681.30790429 76.84717642 -641.42831299 101.25925304 -610 131 C-609.07058594 131.87527344 -608.14117188 132.75054688 -607.18359375 133.65234375 C-600.03423368 140.57796851 -593.94895899 148.040341 -588 156 C-587.5786377 156.55526367 -587.15727539 157.11052734 -586.72314453 157.68261719 C-577.43197658 169.96684002 -569.88026879 183.23946241 -563 197 C-537.26 197 -511.52 197 -485 197 C-481.37 190.07 -477.74 183.14 -474 176 C-470.43288141 170.54912216 -466.86274795 165.22682537 -463 160 C-462.37593262 159.14269287 -462.37593262 159.14269287 -461.73925781 158.26806641 C-455.41716303 149.61216106 -448.41404251 141.73042077 -441 134 C-440.10410156 133.05125 -439.20820312 132.1025 -438.28515625 131.125 C-431.38647979 123.99332859 -423.91533679 117.93941178 -416 112 C-415.04996094 111.278125 -414.09992187 110.55625 -413.12109375 109.8125 C-372.67297643 79.66776046 -325.78757888 66.64242621 -275.83764648 66.74462891 C-273.56703568 66.7418722 -271.29642583 66.73818821 -269.02581787 66.73365784 C-264.17247142 66.72560522 -259.31917086 66.72336224 -254.46581841 66.72560501 C-246.77674032 66.72846112 -239.0877524 66.71400209 -231.3986969 66.69662476 C-220.60833026 66.67350929 -209.81797176 66.65435528 -199.02758789 66.64160156 C-198.34541295 66.64079119 -197.66323802 66.63998082 -196.96039111 66.6391459 C-187.27697955 66.62792101 -177.59357375 66.62264088 -167.91015656 66.61975877 C-167.22767843 66.61955478 -166.5452003 66.61935079 -165.84204102 66.61914062 C-165.16041192 66.61894069 -164.47878283 66.61874075 -163.77649831 66.61853476 C-152.36832241 66.61478865 -140.960254 66.59539026 -129.55211693 66.56404626 C-121.92310389 66.5439358 -114.2943593 66.54141027 -106.66533077 66.55232644 C-101.90518455 66.55494881 -97.14519214 66.54085641 -92.38508606 66.52224541 C-90.19430161 66.51696129 -88.00348817 66.51835466 -85.81271553 66.52728081 C-63.99247357 66.60895215 -44.8116218 63.52877073 -27 50 C-26.09894531 49.09121094 -25.19789063 48.18242188 -24.26953125 47.24609375 C-22 45 -22 45 -20 45 C-19.60554688 44.13375 -19.60554688 44.13375 -19.203125 43.25 C-17.9366571 40.88154056 -16.4767821 39.0534706 -14.75 37 C-6.51154933 26.51781328 -1.23726412 13.3005893 0 0 Z " fill="#1CA8A8" transform="translate(1124,927)"/>
<path d="M0 0 C1.70264163 2.55396244 2.45968055 4.08602146 3.296875 6.9296875 C3.64709717 8.10736694 3.64709717 8.10736694 4.00439453 9.30883789 C4.25044434 10.15567139 4.49649414 11.00250488 4.75 11.875 C5.14034424 13.19455688 5.14034424 13.19455688 5.53857422 14.54077148 C7.186107 20.13397212 8.77864324 25.7420413 10.36083984 31.35400391 C12.37657919 38.49860847 14.42611364 45.5465407 17.07421875 52.48828125 C18.53003998 56.43804095 19.71861761 60.4641621 20.9375 64.4921875 C22.08257062 68.27260446 23.25632857 72.04324865 24.4375 75.8125 C24.99244141 77.58560547 24.99244141 77.58560547 25.55859375 79.39453125 C25.77523682 80.08579102 25.99187988 80.77705078 26.21508789 81.48925781 C26.80737225 83.38383087 27.39729725 85.27914174 27.98608398 87.17480469 C31.62942565 98.88308602 35.36293383 110.56213815 39.10327148 122.23974609 C40.19649898 125.65309723 41.28873725 129.0667638 42.38085938 132.48046875 C43.0806714 134.66668516 43.78053915 136.85288373 44.48046875 139.0390625 C44.80444138 140.05159088 45.128414 141.06411926 45.46220398 142.10733032 C45.76624649 143.05627167 46.070289 144.00521301 46.38354492 144.98291016 C46.66434906 145.86247375 46.9451532 146.74203735 47.23446655 147.64825439 C47.86569798 149.58741949 48.53746689 151.51333985 49.2199707 153.43505859 C50 156 50 156 50 160 C50.66 160 51.32 160 52 160 C52.22558594 159.35546875 52.45117188 158.7109375 52.68359375 158.046875 C54.47472179 153.90123739 56.73847163 150.11713733 59.0625 146.25 C59.58199219 145.38528076 60.10148437 144.52056152 60.63671875 143.62963867 C71.24066133 126.21482077 83.15788555 109.5880871 95 93 C95.33 93.66 95.66 94.32 96 95 C95.01879883 97.50830078 95.01879883 97.50830078 93.45703125 100.6953125 C92.8839624 101.87399902 92.31089355 103.05268555 91.72045898 104.26708984 C91.08484303 105.553243 90.44884727 106.83920852 89.8125 108.125 C89.16494165 109.44587918 88.5178925 110.76700811 87.87133789 112.08837891 C86.55305629 114.77823081 85.22941505 117.46534764 83.90136719 120.15039062 C82.20590905 123.57873329 80.52730398 127.01509633 78.8515625 130.453125 C73.3064883 141.75838404 67.43539992 152.80865247 61.09936523 163.69287109 C60.57802002 164.59344238 60.0566748 165.49401367 59.51953125 166.421875 C59.05651611 167.21174805 58.59350098 168.00162109 58.11645508 168.81542969 C56.30447734 172.36093084 55.7580751 174.02512635 56.7409668 177.98583984 C57.13968994 179.13262207 57.53841309 180.2794043 57.94921875 181.4609375 C58.16310745 182.08795563 58.37699615 182.71497375 58.59736633 183.36099243 C59.28420382 185.36922134 59.98504253 187.37218725 60.6875 189.375 C61.59238219 191.98522465 62.49113471 194.59750902 63.38671875 197.2109375 C63.61038116 197.86156158 63.83404358 198.51218567 64.06448364 199.18252563 C65.91139506 204.61043665 67.48781396 210.09798647 69.02856445 215.62060547 C70.6021177 221.0946251 72.42280368 226.48138715 74.25 231.875 C74.61351562 232.95652344 74.97703125 234.03804687 75.3515625 235.15234375 C76.23156432 237.76919127 77.11438412 240.3850483 78 243 C80.80769659 240.48262597 82.53469381 237.66006 84.44921875 234.42578125 C85.12412354 233.29551514 85.79902832 232.16524902 86.49438477 231.00073242 C86.85122345 230.40005951 87.20806213 229.7993866 87.57571411 229.18051147 C100.20146339 207.96685444 114.12212965 187.67529728 128.27880859 167.45996094 C130.6118326 164.12555669 132.93336698 160.78330532 135.25 157.4375 C135.89453125 156.50808594 136.5390625 155.57867187 137.203125 154.62109375 C139.16170225 151.76412563 141.08448734 148.88598257 143 146 C143.33 146.66 143.66 147.32 144 148 C142.96377979 150.36490019 141.86497129 152.6062326 140.6640625 154.88671875 C139.91317208 156.34882279 139.1635528 157.81158016 138.41503906 159.27490234 C138.01788696 160.04767517 137.62073486 160.820448 137.21154785 161.61663818 C135.19770462 165.57827871 133.26857612 169.58031605 131.3359375 173.58203125 C130.52311778 175.25939848 129.7100439 176.93664258 128.89672852 178.61376953 C128.48512482 179.46279846 128.07352112 180.31182739 127.64944458 181.18658447 C116.30646306 204.55810786 104.65948641 227.68260367 91.7421875 250.234375 C91.27522461 251.05744141 90.80826172 251.88050781 90.32714844 252.72851562 C89.49304297 254.15613101 88.62539068 255.5651801 87.71191406 256.94335938 C85.75139922 259.96547036 84.99417747 261.74759342 85.078125 265.38671875 C86.15056522 269.59013909 87.38250602 273.69679525 88.75 277.8125 C90.86259072 284.31772585 92.83602233 290.83589068 94.625 297.4375 C96.21503415 303.28995248 97.97643758 309.02999101 99.953125 314.765625 C102.21946013 321.76758578 104.07461175 328.8981581 106 336 C106.66 336 107.32 336 108 336 C109.16206843 334.50341286 109.16206843 334.50341286 110.2578125 332.50390625 C110.710354 331.73014648 111.16289551 330.95638672 111.62915039 330.15917969 C112.12278076 329.30227539 112.61641113 328.44537109 113.125 327.5625 C123.69729412 309.58420847 135.0098382 292.06417657 147 275 C148.13305765 273.38168203 149.26585559 271.7631822 150.3984375 270.14453125 C152.19070693 267.58383241 153.98350621 265.02351565 155.77832031 262.46459961 C161.23712628 254.67830773 166.62956035 246.84741794 172 239 C172.33 239.66 172.66 240.32 173 241 C171.99991565 243.4167426 170.93581959 245.70921118 169.765625 248.04296875 C169.24234619 249.11036537 169.24234619 249.11036537 168.70849609 250.19932556 C167.56291168 252.53236321 166.40649474 254.85985408 165.25 257.1875 C164.45716344 258.79694761 163.66517474 260.40681315 162.87402344 262.01708984 C161.68736521 264.43227115 160.50022644 266.84719703 159.31011963 269.26068115 C156.66752885 274.62236496 154.07838198 280.00669938 151.52880859 285.41333008 C142.46770495 304.6270907 132.53085526 323.34334454 121.97265625 341.7734375 C121.24828369 343.05782715 121.24828369 343.05782715 120.50927734 344.36816406 C119.45229495 346.21130062 118.36093381 348.03494947 117.24462891 349.84277344 C113.83133447 355.48389315 113.83133447 355.48389315 113.078125 361.90625 C113.46484375 363.0921875 113.8515625 364.278125 114.25 365.5 C114.55683716 366.50764404 114.55683716 366.50764404 114.86987305 367.53564453 C115.54012982 369.70545461 116.26730327 371.85056357 117 374 C117.68990231 376.1490676 118.36809844 378.30161607 119.04603577 380.45448303 C119.53805393 382.00829112 120.03444387 383.56072547 120.53633118 385.1113739 C122.64794511 391.68719317 124.46567149 398.31897394 126.2265625 404.99609375 C130.10667421 419.55423852 134.29892452 434.01504121 138.52319336 448.47631836 C142.18028158 461.00945475 145.71540797 473.55376636 148.95851135 486.20085144 C150.50962325 492.22024331 152.21994722 498.14555693 154.1015625 504.0703125 C156.10624028 510.60730528 157.68500779 517.26608112 159.35546875 523.89453125 C161.07866412 530.65475922 162.99567808 537.31546828 165.08056641 543.97265625 C166.36313144 548.19565319 167.41495765 552.45807139 168.4375 556.75 C169.93907328 562.90390346 171.53721051 569.00057126 173.375 575.0625 C175.70111252 582.79079682 177.8116931 590.57270397 179.875 598.375 C180.19774902 599.57133057 180.52049805 600.76766113 180.85302734 602.00024414 C181.29316162 603.68234985 181.29316162 603.68234985 181.7421875 605.3984375 C182.14219971 606.90929932 182.14219971 606.90929932 182.55029297 608.45068359 C183 611 183 611 182 614 C179.4314876 614.80227881 177.00180676 615.40798222 174.375 615.9375 C172.8263454 616.27253993 171.27817561 616.60982771 169.73046875 616.94921875 C168.54976807 617.20517822 168.54976807 617.20517822 167.34521484 617.46630859 C162.5429296 618.55914594 157.81440089 619.93324948 153.07421875 621.265625 C150 622 150 622 146 622 C145.68361572 620.71089722 145.68361572 620.71089722 145.36083984 619.39575195 C140.48411748 599.36725642 140.48411748 599.36725642 135 579.5 C131.98918347 569.2863679 129.43384445 558.96452736 126.890625 548.62695312 C124.99478299 540.92709792 123.02248103 533.25291471 120.96435547 525.59472656 C119.48806493 520.09171343 118.05457037 514.57780495 116.625 509.0625 C116.32682373 507.91297852 116.02864746 506.76345703 115.72143555 505.57910156 C113.4745489 496.89185485 111.27839504 488.1926903 109.12939453 479.48071289 C107.85082269 474.31767822 106.51832461 469.17247916 105.13891602 464.03540039 C103.14753266 456.59269532 101.22204245 449.13410762 99.3203125 441.66796875 C99.15494869 441.01912531 98.98958488 440.37028187 98.81921005 439.7017765 C97.94247382 436.26147149 97.06674285 432.82091252 96.19189453 429.38012695 C95.31160382 425.91875059 94.42786875 422.45826408 93.54322815 418.99799728 C92.84723971 416.27259349 92.15429298 413.54642053 91.4616394 410.82016754 C90.94750318 408.80156976 90.42921506 406.78406581 89.91088867 404.76654053 C88.27109845 398.3412303 86.74429285 391.91446141 85.4453125 385.40917969 C85.20029999 384.21956131 84.95528748 383.02994293 84.70285034 381.80427551 C84.25460003 379.59011578 83.83317764 377.37027326 83.44485474 375.14482117 C82.36648225 369.87783283 81.36160875 366.71299959 77.0078125 363.37451172 C73.99164823 361.47772992 70.93155845 359.83066185 67.6171875 358.51171875 C61.33195741 355.80455973 55.66594398 352.31484836 49.875 348.6875 C48.25948242 347.69157837 48.25948242 347.69157837 46.61132812 346.67553711 C25.90625149 333.8453789 5.82830994 319.98963936 -14.265625 306.23046875 C-20.80290234 301.75906695 -27.3958959 297.37187577 -34 293 C-33.34 292.67 -32.68 292.34 -32 292 C-29.58370494 293.06911316 -27.28618124 294.19915671 -24.953125 295.4296875 C-23.49113796 296.1811226 -22.0282157 296.93074039 -20.56445312 297.67871094 C-19.43003784 298.25993713 -19.43003784 298.25993713 -18.27270508 298.85290527 C-14.72991645 300.64104496 -11.14223447 302.32850257 -7.546875 304.0078125 C-6.83729645 304.34019424 -6.1277179 304.67257599 -5.39663696 305.01502991 C-3.93393362 305.6999079 -2.47100982 306.38431523 -1.00787354 307.06826782 C25.48220084 319.46617831 51.63157806 332.41572504 77 347 C76.69151123 346.43079834 76.38302246 345.86159668 76.06518555 345.27514648 C75.00602135 343.01286109 74.45445966 341.03912933 73.95703125 338.59765625 C73.77390381 337.72197998 73.59077637 336.84630371 73.40209961 335.9440918 C73.20753174 334.9931665 73.01296387 334.04224121 72.8125 333.0625 C70.84725745 323.72928881 68.6998987 314.45305106 66.4375 305.1875 C64.4265164 296.92825804 62.42183872 288.66991334 60.5625 280.375 C60.3987085 279.6533667 60.23491699 278.9317334 60.06616211 278.18823242 C59.44643438 275.38578974 59 272.88133577 59 270 C58.319375 269.74863281 57.63875 269.49726563 56.9375 269.23828125 C53.48584531 267.78326192 50.25445723 266.03017835 47 264.1875 C45.96057251 263.59980835 45.96057251 263.59980835 44.90014648 263.00024414 C35.43896356 257.59698018 26.21691941 251.80676838 17 246 C15.51137451 245.06510742 15.51137451 245.06510742 13.99267578 244.11132812 C-0.35611631 235.08338544 -14.38327649 225.68428903 -28.24560547 215.92822266 C-32.78538071 212.75013856 -37.36028662 209.62382034 -41.9375 206.5 C-42.75524902 205.94159424 -43.57299805 205.38318848 -44.41552734 204.80786133 C-46.27647657 203.53777668 -48.13791551 202.26841938 -50 201 C-49.34 200.67 -48.68 200.34 -48 200 C-45.85888672 200.81347656 -45.85888672 200.81347656 -43.1796875 202.140625 C-41.68236084 202.87273193 -41.68236084 202.87273193 -40.15478516 203.61962891 C-39.07245605 204.15765137 -37.99012695 204.69567383 -36.875 205.25 C-34.58951301 206.36917328 -32.30302896 207.48631242 -30.015625 208.6015625 C-28.84708984 209.17165039 -27.67855469 209.74173828 -26.47460938 210.32910156 C-21.23141987 212.85048921 -15.92884789 215.23469118 -10.625 217.625 C-1.22189761 221.89831352 7.93323455 226.49351821 17.01953125 231.39941406 C20.7338635 233.39410298 24.46034243 235.36534576 28.1875 237.3359375 C30.39021498 238.50154084 32.59282827 239.6673361 34.79541016 240.83319092 C36.25850321 241.60755277 37.72171827 242.38168414 39.18505859 243.15557861 C41.24924221 244.24792093 43.3122647 245.34242575 45.375 246.4375 C45.99914795 246.76728851 46.6232959 247.09707703 47.26635742 247.43685913 C49.93964336 248.85823787 52.47741219 250.31827479 55 252 C54.75113037 251.03715088 54.50226074 250.07430176 54.24584961 249.08227539 C51.91177448 239.95759905 49.85073078 230.80971884 47.99920654 221.57589722 C47.5480077 219.36653633 47.07456775 217.16285503 46.59619141 214.95922852 C45.1849287 208.38798645 43.88962037 202.0053906 43.45703125 195.28125 C42.84253951 187.9264959 42.14755058 181.78816608 36.3828125 176.68164062 C29.92157787 172.1753639 23.0013794 168.61867685 15.96565247 165.10243225 C8.95703081 161.56682655 2.5320824 157.30164323 -3.9375 152.875 C-5.04568259 152.12537748 -6.15432245 151.37643049 -7.26342773 150.62817383 C-10.51513699 148.42772726 -13.75813378 146.21491526 -17 144 C-19.19186933 142.50917914 -21.38509346 141.02036167 -23.578125 139.53125 C-28.72618471 136.03164719 -33.86656429 132.52101544 -39 129 C-38.34 128.67 -37.68 128.34 -37 128 C-34.55850871 128.96365052 -32.24002793 129.99323843 -29.87890625 131.12890625 C-28.79346527 131.64042488 -28.79346527 131.64042488 -27.68609619 132.16227722 C-25.30734408 133.28702531 -22.93476316 134.42413639 -20.5625 135.5625 C-18.92737006 136.34090977 -17.29219726 137.11922953 -15.65698242 137.89746094 C1.48873548 146.08904654 18.43634992 154.68083179 35 164 C33.52939503 153.53438761 31.51539682 143.22020887 29.375 132.875 C29.20081543 132.02851898 29.02663086 131.18203796 28.84716797 130.30990601 C25.62401904 114.66700433 22.11269473 99.09948755 18.50444031 83.54176331 C16.76668007 76.02879123 15.10285619 68.49977241 13.44122314 60.96966553 C10.7317658 48.69421183 7.97562847 36.43099221 5.125 24.1875 C4.83874756 22.95410889 4.55249512 21.72071777 4.25756836 20.44995117 C2.673878 13.65024015 2.673878 13.65024015 0.8046875 6.92578125 C0 4 0 4 0 0 Z " fill="#1CA8A8" transform="translate(352,107)"/>
<path d="M0 0 C2.71383131 0.00242974 5.42766257 0.00333947 8.14149475 0.00428772 C14.51587771 0.00737369 20.89024315 0.01554952 27.26461846 0.02563721 C35.24737246 0.03799116 43.23012942 0.04340269 51.21289062 0.04882812 C65.42449275 0.05851708 79.63605675 0.07855749 93.84765625 0.09765625 C93.84765625 18.57765625 93.84765625 37.05765625 93.84765625 56.09765625 C85.47261719 56.1234375 77.09757812 56.14921875 68.46875 56.17578125 C62.40980857 56.20423063 56.35091717 56.23512379 50.29201031 56.26947975 C42.48902578 56.31340706 34.68615176 56.35188696 26.88305664 56.36865234 C-30.19063559 56.49854554 -78.99923068 61.98344913 -131.15234375 87.09765625 C-131.50874665 79.85835951 -131.75301843 72.62133436 -131.92138672 65.37524414 C-131.99158969 62.91377264 -132.08698809 60.45288095 -132.20849609 57.9934082 C-133.15851154 38.26262529 -133.15851154 38.26262529 -129.92840576 33.16674805 C-126.79277063 30.04400955 -123.13501675 28.3522374 -119.02996826 26.81723022 C-116.22643046 25.74281261 -113.65507959 24.27067559 -111.01953125 22.83984375 C-109.0283751 21.87118203 -107.03083072 20.91554984 -105.02734375 19.97265625 C-103.95621338 19.46476562 -102.88508301 18.956875 -101.78149414 18.43359375 C-68.57552318 2.97542928 -36.21176091 -0.07359785 0 0 Z " fill="#00CCCC" transform="translate(862.15234375,299.90234375)"/>
<path d="M0 0 C26.530904 -0.06962304 53.06178578 -0.12307378 79.59276295 -0.15543652 C91.91319208 -0.17086644 104.2335632 -0.19188144 116.55395508 -0.22631836 C127.29981375 -0.25633981 138.04563038 -0.27560311 148.79152983 -0.28226548 C154.47466249 -0.28615625 160.15767492 -0.29521826 165.84076881 -0.31719017 C171.20464228 -0.33775725 176.56834754 -0.34379351 181.9322567 -0.33932304 C183.88676751 -0.3401393 185.84128475 -0.34598319 187.79576111 -0.35761642 C204.41347656 -0.451562 220.35410295 1.38251575 236.4375 5.6875 C237.86618408 6.06551758 237.86618408 6.06551758 239.32373047 6.45117188 C253.87889656 10.4560742 267.30766295 16.68045982 281 23 C281 34.55 281 46.1 281 58 C271.16455696 54.72151899 271.16455696 54.72151899 266.78515625 53.16796875 C228.93153617 39.96414315 192.5670742 37.54087222 152.88619065 37.49388909 C147.49306919 37.48437596 142.10002651 37.45816455 136.70695496 37.43388367 C126.53994592 37.39056517 116.37295247 37.36180714 106.20587987 37.33856028 C94.61171581 37.31132047 83.01763239 37.26742229 71.42352641 37.22227156 C47.61571666 37.12992279 23.8079142 37.06021425 0 37 C0 24.79 0 12.58 0 0 Z " fill="#DEDCD9" transform="translate(188,638)"/>
<path d="M0 0 C1.17150225 -0.00128164 1.17150225 -0.00128164 2.3666712 -0.00258917 C4.97376999 -0.00423132 7.5808039 0.00125665 10.18789673 0.00672913 C12.0606791 0.0070113 13.93346159 0.00685268 15.8062439 0.00628662 C20.88424875 0.00599981 25.96222996 0.01187776 31.04022932 0.01886058 C36.34934844 0.02511347 41.6584681 0.02569945 46.96759033 0.02688599 C57.01844726 0.02999359 67.0692933 0.0381993 77.12014544 0.04823548 C88.56383805 0.05941433 100.00753119 0.06491153 111.4512279 0.06993091 C134.98927207 0.08038237 158.52730132 0.09872077 182.06533813 0.12025452 C182.06533813 12.33025452 182.06533813 24.54025452 182.06533813 37.12025452 C176.7225769 37.13483704 171.37981567 37.14941956 165.87515259 37.16444397 C148.16542325 37.21492158 130.45578012 37.28139254 112.74613667 37.35596943 C102.015389 37.40077146 91.28467337 37.44022129 80.55386353 37.46669006 C71.19155703 37.48979727 61.82935326 37.52333496 52.46712846 37.56895608 C47.51838242 37.59271824 42.56973705 37.6115576 37.62093544 37.61786842 C10.20620827 37.42771845 10.20620827 37.42771845 -16.94814491 40.74188805 C-19.77688467 41.2806704 -22.6206924 41.70206299 -25.46848583 42.12651539 C-48.03526063 45.64137333 -69.86614667 53.86070141 -90.25888062 63.9200592 C-91.10192749 64.33545959 -91.94497437 64.75085999 -92.81356812 65.17884827 C-93.56194946 65.55324036 -94.31033081 65.92763245 -95.08139038 66.31336975 C-96.93466187 67.12025452 -96.93466187 67.12025452 -98.93466187 67.12025452 C-101.91556786 38.89698828 -101.91556786 38.89698828 -97.37606812 31.62269592 C-93.11764522 27.74093178 -87.9827062 25.8622445 -82.58065796 24.05482483 C-80.03971231 23.15735851 -77.76916467 22.09309287 -75.39169312 20.83119202 C-56.33772921 10.73355622 -35.15547929 4.55328915 -13.93466187 1.12025452 C-13.06523642 0.95076577 -12.19581097 0.78127703 -11.30003929 0.60665226 C-7.51330678 0.0593561 -3.81542815 -0.01539719 0 0 Z " fill="#DEDCD9" transform="translate(829.9346618652344,562.8797454833984)"/>
<path d="M0 0 C1.17150225 -0.00128164 1.17150225 -0.00128164 2.3666712 -0.00258917 C4.97376999 -0.00423132 7.5808039 0.00125665 10.18789673 0.00672913 C12.0606791 0.0070113 13.93346159 0.00685268 15.8062439 0.00628662 C20.88424875 0.00599981 25.96222996 0.01187776 31.04022932 0.01886058 C36.34934844 0.02511347 41.6584681 0.02569945 46.96759033 0.02688599 C57.01844726 0.02999359 67.0692933 0.0381993 77.12014544 0.04823548 C88.56383805 0.05941433 100.00753119 0.06491153 111.4512279 0.06993091 C134.98927207 0.08038237 158.52730132 0.09872077 182.06533813 0.12025452 C182.06533813 12.33025452 182.06533813 24.54025452 182.06533813 37.12025452 C176.7225769 37.13483704 171.37981567 37.14941956 165.87515259 37.16444397 C148.16542325 37.21492158 130.45578012 37.28139254 112.74613667 37.35596943 C102.015389 37.40077146 91.28467337 37.44022129 80.55386353 37.46669006 C71.19155703 37.48979727 61.82935326 37.52333496 52.46712846 37.56895608 C47.51838242 37.59271824 42.56973705 37.6115576 37.62093544 37.61786842 C10.20620827 37.42771845 10.20620827 37.42771845 -16.94814491 40.74188805 C-19.77688467 41.2806704 -22.6206924 41.70206299 -25.46848583 42.12651539 C-48.03526063 45.64137333 -69.86614667 53.86070141 -90.25888062 63.9200592 C-91.10192749 64.33545959 -91.94497437 64.75085999 -92.81356812 65.17884827 C-93.56194946 65.55324036 -94.31033081 65.92763245 -95.08139038 66.31336975 C-96.93466187 67.12025452 -96.93466187 67.12025452 -98.93466187 67.12025452 C-101.91556786 38.89698828 -101.91556786 38.89698828 -97.37606812 31.62269592 C-93.11764522 27.74093178 -87.9827062 25.8622445 -82.58065796 24.05482483 C-80.03971231 23.15735851 -77.76916467 22.09309287 -75.39169312 20.83119202 C-56.33772921 10.73355622 -35.15547929 4.55328915 -13.93466187 1.12025452 C-13.06523642 0.95076577 -12.19581097 0.78127703 -11.30003929 0.60665226 C-7.51330678 0.0593561 -3.81542815 -0.01539719 0 0 Z " fill="#DEDCD9" transform="translate(829.9346618652344,487.87974548339844)"/>
<path d="M0 0 C1.17150225 -0.00128164 1.17150225 -0.00128164 2.3666712 -0.00258917 C4.97376999 -0.00423132 7.5808039 0.00125665 10.18789673 0.00672913 C12.0606791 0.0070113 13.93346159 0.00685268 15.8062439 0.00628662 C20.88424875 0.00599981 25.96222996 0.01187776 31.04022932 0.01886058 C36.34934844 0.02511347 41.6584681 0.02569945 46.96759033 0.02688599 C57.01844726 0.02999359 67.0692933 0.0381993 77.12014544 0.04823548 C88.56383805 0.05941433 100.00753119 0.06491153 111.4512279 0.06993091 C134.98927207 0.08038237 158.52730132 0.09872077 182.06533813 0.12025452 C182.06533813 12.33025452 182.06533813 24.54025452 182.06533813 37.12025452 C176.7225769 37.13483704 171.37981567 37.14941956 165.87515259 37.16444397 C148.16542325 37.21492158 130.45578012 37.28139254 112.74613667 37.35596943 C102.015389 37.40077146 91.28467337 37.44022129 80.55386353 37.46669006 C71.19155703 37.48979727 61.82935326 37.52333496 52.46712846 37.56895608 C47.51838242 37.59271824 42.56973705 37.6115576 37.62093544 37.61786842 C10.20620827 37.42771845 10.20620827 37.42771845 -16.94814491 40.74188805 C-19.77688467 41.2806704 -22.6206924 41.70206299 -25.46848583 42.12651539 C-48.03526063 45.64137333 -69.86614667 53.86070141 -90.25888062 63.9200592 C-91.10192749 64.33545959 -91.94497437 64.75085999 -92.81356812 65.17884827 C-93.56194946 65.55324036 -94.31033081 65.92763245 -95.08139038 66.31336975 C-96.93466187 67.12025452 -96.93466187 67.12025452 -98.93466187 67.12025452 C-101.91556786 38.89698828 -101.91556786 38.89698828 -97.37606812 31.62269592 C-93.11764522 27.74093178 -87.9827062 25.8622445 -82.58065796 24.05482483 C-80.03971231 23.15735851 -77.76916467 22.09309287 -75.39169312 20.83119202 C-56.33772921 10.73355622 -35.15547929 4.55328915 -13.93466187 1.12025452 C-13.06523642 0.95076577 -12.19581097 0.78127703 -11.30003929 0.60665226 C-7.51330678 0.0593561 -3.81542815 -0.01539719 0 0 Z " fill="#DEDCD9" transform="translate(829.9346618652344,412.87974548339844)"/>
<path d="M0 0 C6.66362775 2.79490993 13.65711596 4.69989605 20.58616257 6.71674347 C21.90939029 7.10751967 23.23244579 7.49887962 24.5553112 7.89088058 C29.27498771 9.28568509 33.93195341 10.62803528 38.77366257 11.52924347 C39.98544407 15.86483877 41.19285925 20.20153553 42.39085007 24.54096222 C43.25570107 27.67317435 44.13539734 30.80036503 45.03147507 33.92377472 C45.40415071 35.25051907 45.77656118 36.57733795 46.14866257 37.90424347 C46.48639694 39.08760284 46.82413132 40.27096222 47.17210007 41.49018097 C47.76248623 44.47278117 47.60969408 45.71437625 46.77366257 48.52924347 C42.01948802 46.96210225 37.27987678 45.361671 32.55881882 43.69721222 C-5.29480126 30.49338662 -41.65926323 28.07011569 -81.34014678 28.02313256 C-86.73326825 28.01361943 -92.12631093 27.98740802 -97.51938248 27.96312714 C-107.68639151 27.91980864 -117.85338497 27.89105061 -128.02045757 27.86780375 C-139.61462163 27.84056394 -151.20870505 27.79666576 -162.80281103 27.75151503 C-186.61062077 27.65916626 -210.41842323 27.58945771 -234.22633743 27.52924347 C-234.22633743 15.31924347 -234.22633743 3.10924347 -234.22633743 -9.47075653 C-208.21553138 -9.87439296 -182.20567932 -10.22537979 -156.19305992 -10.48365402 C-144.11116424 -10.60524522 -132.03036303 -10.7492712 -119.94948196 -10.94878387 C-109.40256603 -11.12290364 -98.85614425 -11.2522119 -88.30806911 -11.33078551 C-82.73803309 -11.37376126 -77.17013622 -11.43706914 -71.60112762 -11.55432129 C-45.51726236 -12.08698847 -24.05948547 -10.42662466 0 0 Z " fill="#DDDBD8" transform="translate(422.2263374328613,572.4707565307617)"/>
<path d="M0 0 C1.12253677 -0.00014603 2.24507355 -0.00029205 3.40162659 -0.0004425 C7.10256906 0.00025274 10.80346087 0.00802703 14.50439453 0.01586914 C17.07414726 0.0177347 19.64390035 0.01915795 22.21365356 0.02015686 C28.2802185 0.02358158 34.34676261 0.03145871 40.41331971 0.04150635 C47.32263563 0.05270034 54.23195243 0.05818621 61.14127517 0.06320179 C75.34826377 0.07364224 89.55523105 0.09197455 103.76220703 0.11352539 C103.76220703 12.32352539 103.76220703 24.53352539 103.76220703 37.11352539 C100.69141846 37.12810791 97.62062988 37.14269043 94.45678711 37.15771484 C84.23088163 37.20839377 74.00512315 37.27504408 63.77936268 37.3492403 C57.58868054 37.39368083 51.39806025 37.43299257 45.20727539 37.45996094 C39.21596588 37.48625944 33.22489785 37.52684239 27.23373985 37.57671165 C24.96522753 37.59320304 22.69667361 37.60482622 20.42811012 37.6111393 C6.7318175 37.65305323 -6.47343843 38.44849692 -19.9869175 40.73515892 C-22.26217848 41.11762453 -24.54034499 41.47220359 -26.82121277 41.8195343 C-50.12585519 45.42830962 -72.48020698 53.51406642 -93.56201172 63.91333008 C-94.40505859 64.32873047 -95.24810547 64.74413086 -96.11669922 65.17211914 C-96.86508057 65.54651123 -97.61346191 65.92090332 -98.38452148 66.30664062 C-100.23779297 67.11352539 -100.23779297 67.11352539 -102.23779297 67.11352539 C-105.21869896 38.89025915 -105.21869896 38.89025915 -100.67919922 31.6159668 C-96.42077633 27.73420266 -91.28583731 25.85551537 -85.88378906 24.0480957 C-83.34284341 23.15062939 -81.07229578 22.08636374 -78.69482422 20.82446289 C-59.64086031 10.7268271 -38.45861039 4.54656003 -17.23779297 1.11352539 C-16.4364946 0.94389786 -15.63519623 0.77427032 -14.80961609 0.59950256 C-9.86282313 -0.07355105 -4.98660744 -0.01701353 0 0 Z " fill="#DEDCD9" transform="translate(833.23779296875,637.886474609375)"/>
<path d="M0 0 C49.17 0 98.34 0 149 0 C149 12.21 149 24.42 149 37 C99.83 37 50.66 37 0 37 C0 24.79 0 12.58 0 0 Z " fill="#DEDCD9" transform="translate(188,713)"/>
<path d="M0 0 C13.03049695 -0.27135272 26.05911159 -0.49139088 39.09179688 -0.62174606 C45.14381036 -0.68431814 51.19378755 -0.7691456 57.24462891 -0.90527344 C63.08682162 -1.03588128 68.92705924 -1.10745317 74.77059937 -1.13852692 C76.99716987 -1.16066257 79.22363584 -1.20389371 81.44937134 -1.26876068 C98.91312965 -1.75737772 98.91312965 -1.75737772 104.04541016 2.5645752 C106.10249466 5.63756658 107.52945241 8.61692861 109 12 C110.3220904 13.81067741 111.69117041 15.5889547 113.125 17.3125 C113.78886719 18.11945313 114.45273437 18.92640625 115.13671875 19.7578125 C116.05904297 20.86769531 116.05904297 20.86769531 117 22 C117.50144531 22.63679688 118.00289063 23.27359375 118.51953125 23.9296875 C121.95424082 28.18759192 125.83956622 31.37697448 130.2421875 34.6171875 C130.82226562 35.07351563 131.40234375 35.52984375 132 36 C132 36.33 132 36.66 132 37 C88.44 37 44.88 37 0 37 C0 24.79 0 12.58 0 0 Z " fill="#DDDBD8" transform="translate(188,488)"/>
<path d="M0 0 C0.33 0 0.66 0 1 0 C1.11596193 8.25811948 1.20474854 16.51589759 1.25906086 24.77463055 C1.2851312 28.60973093 1.32048034 32.44427343 1.37719727 36.27905273 C1.43161164 39.98141252 1.46143983 43.68323649 1.47438622 47.38596535 C1.48360947 48.79699958 1.50162116 50.20800518 1.52865028 51.61881065 C1.56505405 53.59803933 1.56704333 55.5778097 1.56762695 57.55737305 C1.57873001 58.68322311 1.58983307 59.80907318 1.60127258 60.96903992 C0.81077096 64.95388629 -0.98558326 66.37384521 -4 69 C-5.32864582 70.69580639 -6.6408083 72.40463676 -7.9375 74.125 C-21.46062333 90.71038432 -40.68307138 100.0115929 -61.78225708 102.43429565 C-77.2562177 103.57805824 -92.72418196 102.41366985 -108.18195105 101.51889277 C-112.20994023 101.28788108 -116.23856293 101.06846359 -120.26712036 100.84762573 C-127.01993714 100.4758861 -133.77230898 100.09684447 -140.52441406 99.71240234 C-150.00960367 99.17235702 -159.49549651 98.64559042 -168.98157859 98.12148881 C-176.40191937 97.71107636 -183.82207816 97.29738605 -191.2421875 96.8828125 C-192.02818628 96.8389046 -192.81418506 96.79499669 -193.62400198 96.74975824 C-198.16150071 96.49599975 -202.6988958 96.2404931 -207.23616219 95.98261261 C-209.24565588 95.86864076 -211.25521941 95.75590234 -213.26478577 95.64321899 C-221.18500282 95.19062216 -229.09269867 94.63984633 -237 94 C-237 93.67 -237 93.34 -237 93 C-236.08799867 92.99945523 -235.17599733 92.99891047 -234.2363596 92.99834919 C-211.9819861 92.9833416 -189.72781203 92.94073445 -167.47354984 92.86790943 C-156.71126633 92.8333472 -145.94910974 92.80791545 -135.18676758 92.80444336 C-125.79955251 92.80139123 -116.412564 92.7807338 -107.02543634 92.73947543 C-102.0610914 92.7182566 -97.09706763 92.70548719 -92.13267708 92.71384621 C-87.44655981 92.72145732 -82.76108949 92.70528087 -78.07509041 92.67193985 C-76.36810206 92.66379074 -74.66104833 92.66385539 -72.95406723 92.67340279 C-51.8022783 92.77986127 -34.73339335 87.01234869 -19.140625 72.19921875 C-10.18918386 63.00275641 -3.45203944 50.8609208 -2 38 C-2.37511719 38.51949219 -2.75023437 39.03898438 -3.13671875 39.57421875 C-6.17873964 43.71964268 -9.2640492 47.4462907 -13 51 C-13.46535156 51.52078125 -13.93070313 52.0415625 -14.41015625 52.578125 C-25.94156364 65.15784216 -42.56877699 71.22394862 -59 74 C-60.06684021 74.18356552 -61.13368042 74.36713104 -62.23284912 74.55625916 C-69.01981218 75.3800794 -75.88071968 74.9055676 -82.69628906 74.67797852 C-84.28901617 74.62894091 -85.88175041 74.5801346 -87.47449112 74.53154087 C-106.59350649 73.93221633 -125.70437952 73.10651653 -144.81478024 72.28317332 C-150.01553678 72.05969112 -155.21642464 71.83930452 -160.41729736 71.61854553 C-170.20162129 71.20278624 -179.98582956 70.78436936 -189.76999593 70.3649202 C-200.93618693 69.88635883 -212.1025085 69.41087804 -223.26884031 68.93561542 C-246.17937045 67.96042793 -269.08973964 66.98150375 -292 66 C-292 65.67 -292 65.34 -292 65 C-290.80785354 64.99853344 -289.61570707 64.99706688 -288.38743496 64.99555588 C-260.03667095 64.9597913 -231.68599818 64.90346011 -203.33532869 64.82207905 C-199.83968244 64.81206256 -196.34403572 64.80221827 -192.84838867 64.79248047 C-192.15251947 64.7905391 -191.45665027 64.78859772 -190.73969413 64.78659752 C-179.4980763 64.7556449 -168.25647885 64.73861575 -157.01482647 64.72680578 C-145.46483512 64.71435917 -133.91496567 64.68648485 -122.36503893 64.64538693 C-115.88392204 64.62280781 -109.40295651 64.60708721 -102.9217968 64.60811615 C-96.8125753 64.60886484 -90.70368798 64.59082971 -84.59455299 64.55883217 C-82.36102703 64.55036365 -80.12746344 64.54856233 -77.89392853 64.55419731 C-56.040586 64.60195665 -36.59128475 61.00817148 -20.15136719 45.48339844 C-7.77382089 33.0043275 -1.92619715 17.3070251 0 0 Z " fill="#B2B0AD" transform="translate(1124,863)"/>
<path d="M0 0 C23.1 0 46.2 0 70 0 C73.37773153 9.00728408 73.37773153 9.00728408 74.75390625 13.34765625 C75.05103516 14.28287109 75.34816406 15.21808594 75.65429688 16.18164062 C75.95400391 17.13232422 76.25371094 18.08300781 76.5625 19.0625 C76.86607422 20.01705078 77.16964844 20.97160156 77.48242188 21.95507812 C79.066099 26.95452945 80.55841695 31.95445931 82 37 C54.94 37 27.88 37 0 37 C0 24.79 0 12.58 0 0 Z " fill="#DDDBD8" transform="translate(188,413)"/>
<path d="M0 0 C19.47 0 38.94 0 59 0 C61.6 19.5 61.6 19.5 62.125 23.5625 C62.37636719 25.48255859 62.37636719 25.48255859 62.6328125 27.44140625 C63 31 63 31 63 37 C42.21 37 21.42 37 0 37 C0 24.79 0 12.58 0 0 Z " fill="#DDDBD8" transform="translate(188,338)"/>
<path d="M0 0 C2.18975773 3.28463659 2.99806563 6.20696275 4 10 C3.01 10 2.02 10 1 10 C0.67 6.7 0.34 3.4 0 0 Z " fill="#1DB2AF" transform="translate(357,125)"/>
</svg>
